<svg width="42" height="42" viewBox="0 0 42 42" fill="none" xmlns="http://www.w3.org/2000/svg">
<path d="M8.3998 6.30005H6.2998V8.40005H8.3998V6.30005Z" fill="#9DAD86"/>
<path d="M14.7001 6.30005H12.6001V8.40005H14.7001V6.30005Z" fill="#9DAD86"/>
<path d="M16.8002 6.30005H14.7002V8.40005H16.8002V6.30005Z" fill="#9DAD86"/>
<path d="M18.8998 6.30005H16.7998V8.40005H18.8998V6.30005Z" fill="#9DAD86"/>
<path d="M20.9999 6.30005H18.8999V8.40005H20.9999V6.30005Z" fill="#9DAD86"/>
<path d="M23.1 6.30005H21V8.40005H23.1V6.30005Z" fill="#9DAD86"/>
<path d="M25.2001 6.30005H23.1001V8.40005H25.2001V6.30005Z" fill="#9DAD86"/>
<path d="M27.3002 6.30005H25.2002V8.40005H27.3002V6.30005Z" fill="#9DAD86"/>
<path d="M29.3998 6.30005H27.2998V8.40005H29.3998V6.30005Z" fill="#9DAD86"/>
<path d="M31.4999 6.30005H29.3999V8.40005H31.4999V6.30005Z" fill="#9DAD86"/>
<path d="M33.6 6.30005H31.5V8.40005H33.6V6.30005Z" fill="#9DAD86"/>
<path d="M10.4999 8.3999H8.3999V10.4999H10.4999V8.3999Z" fill="#9DAD86"/>
<path d="M16.8002 8.3999H14.7002V10.4999H16.8002V8.3999Z" fill="#9DAD86"/>
<path d="M18.8998 8.3999H16.7998V10.4999H18.8998V8.3999Z" fill="#9DAD86"/>
<path d="M20.9999 8.3999H18.8999V10.4999H20.9999V8.3999Z" fill="#9DAD86"/>
<path d="M23.1 8.3999H21V10.4999H23.1V8.3999Z" fill="#9DAD86"/>
<path d="M25.2001 8.3999H23.1001V10.4999H25.2001V8.3999Z" fill="#9DAD86"/>
<path d="M27.3002 8.3999H25.2002V10.4999H27.3002V8.3999Z" fill="#9DAD86"/>
<path d="M29.3998 8.3999H27.2998V10.4999H29.3998V8.3999Z" fill="#9DAD86"/>
<path d="M31.4999 8.3999H29.3999V10.4999H31.4999V8.3999Z" fill="#9DAD86"/>
<path d="M33.6 8.3999H31.5V10.4999H33.6V8.3999Z" fill="#9DAD86"/>
<path d="M12.6 10.5H10.5V12.6H12.6V10.5Z" fill="#9DAD86"/>
<path d="M18.8998 10.5H16.7998V12.6H18.8998V10.5Z" fill="#9DAD86"/>
<path d="M20.9999 10.5H18.8999V12.6H20.9999V10.5Z" fill="#9DAD86"/>
<path d="M23.1 10.5H21V12.6H23.1V10.5Z" fill="#9DAD86"/>
<path d="M25.2001 10.5H23.1001V12.6H25.2001V10.5Z" fill="#9DAD86"/>
<path d="M27.3002 10.5H25.2002V12.6H27.3002V10.5Z" fill="#9DAD86"/>
<path d="M29.3998 10.5H27.2998V12.6H29.3998V10.5Z" fill="#9DAD86"/>
<path d="M31.4999 10.5H29.3999V12.6H31.4999V10.5Z" fill="#9DAD86"/>
<path d="M33.6 10.5H31.5V12.6H33.6V10.5Z" fill="#9DAD86"/>
<path d="M14.7001 12.6001H12.6001V14.7001H14.7001V12.6001Z" fill="#9DAD86"/>
<path d="M23.1 12.6001H21V14.7001H23.1V12.6001Z" fill="#9DAD86"/>
<path d="M25.2001 12.6001H23.1001V14.7001H25.2001V12.6001Z" fill="#9DAD86"/>
<path d="M27.3002 12.6001H25.2002V14.7001H27.3002V12.6001Z" fill="#9DAD86"/>
<path d="M29.3998 12.6001H27.2998V14.7001H29.3998V12.6001Z" fill="#9DAD86"/>
<path d="M31.4999 12.6001H29.3999V14.7001H31.4999V12.6001Z" fill="#9DAD86"/>
<path d="M33.6 12.6001H31.5V14.7001H33.6V12.6001Z" fill="#9DAD86"/>
<path d="M16.8002 14.7H14.7002V16.8H16.8002V14.7Z" fill="#9DAD86"/>
<path d="M33.6 14.7H31.5V16.8H33.6V14.7Z" fill="#9DAD86"/>
<path d="M18.8998 16.8H16.7998V18.9H18.8998V16.8Z" fill="#9DAD86"/>
<path d="M33.6 16.8H31.5V18.9H33.6V16.8Z" fill="#9DAD86"/>
<path d="M14.7001 18.8999H12.6001V20.9999H14.7001V18.8999Z" fill="#9DAD86"/>
<path d="M20.9999 18.8999H18.8999V20.9999H20.9999V18.8999Z" fill="#9DAD86"/>
<path d="M33.6 18.8999H31.5V20.9999H33.6V18.8999Z" fill="#9DAD86"/>
<path d="M14.7001 21H12.6001V23.1H14.7001V21Z" fill="#9DAD86"/>
<path d="M23.1 21H21V23.1H23.1V21Z" fill="#9DAD86"/>
<path d="M33.6 21H31.5V23.1H33.6V21Z" fill="#9DAD86"/>
<path d="M14.7001 23.1001H12.6001V25.2001H14.7001V23.1001Z" fill="#9DAD86"/>
<path d="M25.2001 23.1001H23.1001V25.2001H25.2001V23.1001Z" fill="#9DAD86"/>
<path d="M33.6 23.1001H31.5V25.2001H33.6V23.1001Z" fill="#9DAD86"/>
<path d="M14.7001 25.2H12.6001V27.3H14.7001V25.2Z" fill="#9DAD86"/>
<path d="M27.3002 25.2H25.2002V27.3H27.3002V25.2Z" fill="#9DAD86"/>
<path d="M33.6 25.2H31.5V27.3H33.6V25.2Z" fill="#9DAD86"/>
<path d="M8.3998 27.3H6.2998V29.4H8.3998V27.3Z" fill="#9DAD86"/>
<path d="M10.4999 27.3H8.3999V29.4H10.4999V27.3Z" fill="#9DAD86"/>
<path d="M12.6 27.3H10.5V29.4H12.6V27.3Z" fill="#9DAD86"/>
<path d="M14.7001 27.3H12.6001V29.4H14.7001V27.3Z" fill="#9DAD86"/>
<path d="M29.3998 27.3H27.2998V29.4H29.3998V27.3Z" fill="#9DAD86"/>
<path d="M6.3002 29.3999H4.2002V31.4999H6.3002V29.3999Z" fill="#9DAD86"/>
<path d="M8.3998 29.3999H6.2998V31.4999H8.3998V29.3999Z" fill="#9DAD86"/>
<path d="M10.4999 29.3999H8.3999V31.4999H10.4999V29.3999Z" fill="#9DAD86"/>
<path d="M12.6 29.3999H10.5V31.4999H12.6V29.3999Z" fill="#9DAD86"/>
<path d="M14.7001 29.3999H12.6001V31.4999H14.7001V29.3999Z" fill="#9DAD86"/>
<path d="M25.2001 29.3999H23.1001V31.4999H25.2001V29.3999Z" fill="#9DAD86"/>
<path d="M31.4999 29.3999H29.3999V31.4999H31.4999V29.3999Z" fill="#9DAD86"/>
<path d="M6.3002 31.5H4.2002V33.6H6.3002V31.5Z" fill="#9DAD86"/>
<path d="M8.3998 31.5H6.2998V33.6H8.3998V31.5Z" fill="#9DAD86"/>
<path d="M10.4999 31.5H8.3999V33.6H10.4999V31.5Z" fill="#9DAD86"/>
<path d="M12.6 31.5H10.5V33.6H12.6V31.5Z" fill="#9DAD86"/>
<path d="M14.7001 31.5H12.6001V33.6H14.7001V31.5Z" fill="#9DAD86"/>
<path d="M25.2001 31.5H23.1001V33.6H25.2001V31.5Z" fill="#9DAD86"/>
<path d="M27.3002 31.5H25.2002V33.6H27.3002V31.5Z" fill="#9DAD86"/>
<path d="M33.6 31.5H31.5V33.6H33.6V31.5Z" fill="#9DAD86"/>
<path d="M8.3998 33.6001H6.2998V35.7001H8.3998V33.6001Z" fill="#9DAD86"/>
<path d="M10.4999 33.6001H8.3999V35.7001H10.4999V33.6001Z" fill="#9DAD86"/>
<path d="M12.6 33.6001H10.5V35.7001H12.6V33.6001Z" fill="#9DAD86"/>
<path d="M27.3002 33.6001H25.2002V35.7001H27.3002V33.6001Z" fill="#9DAD86"/>
<path d="M29.3998 33.6001H27.2998V35.7001H29.3998V33.6001Z" fill="#9DAD86"/>
<path d="M35.7001 33.6001H33.6001V35.7001H35.7001V33.6001Z" fill="#9DAD86"/>
</svg>
