<svg width="40" height="40" viewBox="0 0 40 40" fill="none" xmlns="http://www.w3.org/2000/svg">
<path d="M20 6H18V8H20V6Z" fill="#9DAD86"/>
<path d="M22 6H20V8H22V6Z" fill="#9DAD86"/>
<path d="M18 8H16V10H18V8Z" fill="#9DAD86"/>
<path d="M22 8H20V10H22V8Z" fill="#9DAD86"/>
<path d="M16 10H14V12H16V10Z" fill="#9DAD86"/>
<path d="M22 10H20V12H22V10Z" fill="#9DAD86"/>
<path d="M14 12H12V14H14V12Z" fill="#9DAD86"/>
<path d="M22 12H20V14H22V12Z" fill="#9DAD86"/>
<path d="M8 14H6V16H8V14Z" fill="#9DAD86"/>
<path d="M10 14H8V16H10V14Z" fill="#9DAD86"/>
<path d="M12 14H10V16H12V14Z" fill="#9DAD86"/>
<path d="M22 14H20V16H22V14Z" fill="#9DAD86"/>
<path d="M26 14H24V16H26V14Z" fill="#9DAD86"/>
<path d="M34 14H32V16H34V14Z" fill="#9DAD86"/>
<path d="M6 16H4V18H6V16Z" fill="#9DAD86"/>
<path d="M8 16H6V18H8V16Z" fill="#9DAD86"/>
<path d="M10 16H8V18H10V16Z" fill="#9DAD86"/>
<path d="M22 16H20V18H22V16Z" fill="#9DAD86"/>
<path d="M28 16H26V18H28V16Z" fill="#9DAD86"/>
<path d="M32 16H30V18H32V16Z" fill="#9DAD86"/>
<path d="M6 18H4V20H6V18Z" fill="#9DAD86"/>
<path d="M8 18H6V20H8V18Z" fill="#9DAD86"/>
<path d="M10 18H8V20H10V18Z" fill="#9DAD86"/>
<path d="M22 18H20V20H22V18Z" fill="#9DAD86"/>
<path d="M30 18H28V20H30V18Z" fill="#9DAD86"/>
<path d="M6 20H4V22H6V20Z" fill="#9DAD86"/>
<path d="M8 20H6V22H8V20Z" fill="#9DAD86"/>
<path d="M10 20H8V22H10V20Z" fill="#9DAD86"/>
<path d="M22 20H20V22H22V20Z" fill="#9DAD86"/>
<path d="M30 20H28V22H30V20Z" fill="#9DAD86"/>
<path d="M6 22H4V24H6V22Z" fill="#9DAD86"/>
<path d="M8 22H6V24H8V22Z" fill="#9DAD86"/>
<path d="M10 22H8V24H10V22Z" fill="#9DAD86"/>
<path d="M22 22H20V24H22V22Z" fill="#9DAD86"/>
<path d="M28 22H26V24H28V22Z" fill="#9DAD86"/>
<path d="M32 22H30V24H32V22Z" fill="#9DAD86"/>
<path d="M8 24H6V26H8V24Z" fill="#9DAD86"/>
<path d="M10 24H8V26H10V24Z" fill="#9DAD86"/>
<path d="M12 24H10V26H12V24Z" fill="#9DAD86"/>
<path d="M22 24H20V26H22V24Z" fill="#9DAD86"/>
<path d="M26 24H24V26H26V24Z" fill="#9DAD86"/>
<path d="M34 24H32V26H34V24Z" fill="#9DAD86"/>
<path d="M14 26H12V28H14V26Z" fill="#9DAD86"/>
<path d="M22 26H20V28H22V26Z" fill="#9DAD86"/>
<path d="M16 28H14V30H16V28Z" fill="#9DAD86"/>
<path d="M22 28H20V30H22V28Z" fill="#9DAD86"/>
<path d="M18 30H16V32H18V30Z" fill="#9DAD86"/>
<path d="M22 30H20V32H22V30Z" fill="#9DAD86"/>
<path d="M20 32H18V34H20V32Z" fill="#9DAD86"/>
<path d="M22 32H20V34H22V32Z" fill="#9DAD86"/>
</svg>
